<svg width="102" height="16" viewBox="0 0 102 16" fill="none" xmlns="http://www.w3.org/2000/svg">
<path d="M0.36 15V0.899999H3.56L8.18 11.24H7.52L12.12 0.899999H15.34V15H12V6.36H12.86L8.86 15H6.78L2.76 6.36H3.68V15H0.36ZM22.8558 15.22C21.7224 15.22 20.7424 15.0067 19.9158 14.58C19.0891 14.1533 18.4491 13.5467 17.9958 12.76C17.5424 11.96 17.3158 11.0133 17.3158 9.92C17.3158 8.81333 17.5424 7.86667 17.9958 7.08C18.4491 6.29333 19.0891 5.68667 19.9158 5.26C20.7424 4.83333 21.7224 4.62 22.8558 4.62C23.9758 4.62 24.9491 4.83333 25.7758 5.26C26.6024 5.68667 27.2424 6.3 27.6958 7.1C28.1491 7.88667 28.3758 8.82667 28.3758 9.92C28.3758 11 28.1491 11.94 27.6958 12.74C27.2424 13.54 26.6024 14.1533 25.7758 14.58C24.9491 15.0067 23.9758 15.22 22.8558 15.22ZM22.8558 12.58C23.4424 12.58 23.9091 12.3733 24.2558 11.96C24.6024 11.5333 24.7758 10.8533 24.7758 9.92C24.7758 8.98667 24.6024 8.31333 24.2558 7.9C23.9091 7.47333 23.4424 7.26 22.8558 7.26C22.2558 7.26 21.7824 7.47333 21.4358 7.9C21.0891 8.31333 20.9158 8.98667 20.9158 9.92C20.9158 10.8533 21.0891 11.5333 21.4358 11.96C21.7824 12.3733 22.2558 12.58 22.8558 12.58ZM30.1195 15V0.279999H33.6795V6.62H33.3795C33.7129 5.96667 34.1862 5.47333 34.7995 5.14C35.4129 4.79333 36.1129 4.62 36.8995 4.62C38.0862 4.62 38.9729 4.97333 39.5595 5.68C40.1462 6.38667 40.4395 7.46 40.4395 8.9V15H36.8795V9.06C36.8795 8.44667 36.7662 8.00667 36.5395 7.74C36.3262 7.47333 35.9995 7.34 35.5595 7.34C34.9862 7.34 34.5262 7.52 34.1795 7.88C33.8462 8.24 33.6795 8.71333 33.6795 9.3V15H30.1195ZM46.5805 15.22C45.7005 15.22 44.9271 15.0133 44.2605 14.6C43.5938 14.1733 43.0671 13.56 42.6805 12.76C42.3071 11.96 42.1205 11.0133 42.1205 9.92C42.1205 8.81333 42.3071 7.86667 42.6805 7.08C43.0671 6.28 43.5938 5.67333 44.2605 5.26C44.9271 4.83333 45.7005 4.62 46.5805 4.62C47.3671 4.62 48.0738 4.80667 48.7005 5.18C49.3405 5.55333 49.7605 6.04 49.9605 6.64H49.7605L49.9805 4.84H53.4005C53.3605 5.29333 53.3205 5.75333 53.2805 6.22C53.2538 6.68667 53.2405 7.14667 53.2405 7.6V15H49.7205L49.6805 13.28H49.9205C49.7205 13.8667 49.3005 14.34 48.6605 14.7C48.0338 15.0467 47.3405 15.22 46.5805 15.22ZM47.7205 12.58C48.3205 12.58 48.8071 12.3733 49.1805 11.96C49.5538 11.5333 49.7405 10.8533 49.7405 9.92C49.7405 8.98667 49.5538 8.31333 49.1805 7.9C48.8071 7.47333 48.3205 7.26 47.7205 7.26C47.1205 7.26 46.6338 7.47333 46.2605 7.9C45.8871 8.31333 45.7005 8.98667 45.7005 9.92C45.7005 10.8533 45.8805 11.5333 46.2405 11.96C46.6138 12.3733 47.1071 12.58 47.7205 12.58ZM55.4516 15V7.6C55.4516 7.14667 55.4382 6.68667 55.4116 6.22C55.3849 5.75333 55.3449 5.29333 55.2916 4.84H58.7316L58.9316 6.6H58.7116C59.0049 5.98667 59.4382 5.50667 60.0116 5.16C60.5849 4.8 61.2582 4.62 62.0316 4.62C62.7782 4.62 63.4116 4.8 63.9316 5.16C64.4649 5.50667 64.8516 6.06 65.0916 6.82H64.7516C65.0849 6.12667 65.5649 5.58667 66.1916 5.2C66.8316 4.81333 67.5449 4.62 68.3316 4.62C69.4916 4.62 70.3582 4.97333 70.9316 5.68C71.5049 6.37333 71.7916 7.46 71.7916 8.94V15H68.2116V9.06C68.2116 8.43333 68.1182 7.99333 67.9316 7.74C67.7449 7.47333 67.4449 7.34 67.0316 7.34C66.5116 7.34 66.1049 7.52667 65.8116 7.9C65.5316 8.27333 65.3916 8.78667 65.3916 9.44V15H61.8316V9.06C61.8316 8.43333 61.7316 7.99333 61.5316 7.74C61.3449 7.47333 61.0516 7.34 60.6516 7.34C60.1316 7.34 59.7249 7.52667 59.4316 7.9C59.1516 8.27333 59.0116 8.78667 59.0116 9.44V15H55.4516ZM79.2881 15.22C77.4481 15.22 76.0148 14.7467 74.9881 13.8C73.9748 12.8533 73.4681 11.5533 73.4681 9.9C73.4681 8.87333 73.6815 7.96 74.1081 7.16C74.5348 6.36 75.1348 5.74 75.9081 5.3C76.6815 4.84667 77.5881 4.62 78.6281 4.62C79.6548 4.62 80.5081 4.84667 81.1881 5.3C81.8815 5.74 82.4015 6.35333 82.7481 7.14C83.0948 7.91333 83.2681 8.81333 83.2681 9.84V10.6H76.4481V8.92H80.6481L80.3081 9.2C80.3081 8.44 80.1615 7.88 79.8681 7.52C79.5881 7.14667 79.1881 6.96 78.6681 6.96C78.0681 6.96 77.6081 7.18667 77.2881 7.64C76.9815 8.08 76.8281 8.74667 76.8281 9.64V10C76.8281 10.8933 77.0481 11.5467 77.4881 11.96C77.9281 12.3733 78.5615 12.58 79.3881 12.58C79.9215 12.58 80.4215 12.52 80.8881 12.4C81.3681 12.28 81.8215 12.0867 82.2481 11.82L83.1681 14.14C82.6615 14.4867 82.0748 14.7533 81.4081 14.94C80.7415 15.1267 80.0348 15.22 79.2881 15.22ZM89.0033 15.22C88.1366 15.22 87.3633 15.0133 86.6833 14.6C86.0033 14.1733 85.4699 13.56 85.0833 12.76C84.6966 11.96 84.5033 11.0133 84.5033 9.92C84.5033 8.81333 84.6899 7.86667 85.0633 7.08C85.4499 6.28 85.9833 5.67333 86.6633 5.26C87.3566 4.83333 88.1366 4.62 89.0033 4.62C89.7766 4.62 90.4766 4.8 91.1033 5.16C91.7299 5.50667 92.1499 5.97333 92.3633 6.56H92.0633V0.279999H95.6233V15H92.1233V13.18H92.3833C92.1966 13.7933 91.7833 14.2867 91.1433 14.66C90.5166 15.0333 89.8033 15.22 89.0033 15.22ZM90.1433 12.58C90.7299 12.58 91.2099 12.3733 91.5833 11.96C91.9699 11.5333 92.1633 10.8533 92.1633 9.92C92.1633 8.98667 91.9699 8.31333 91.5833 7.9C91.2099 7.47333 90.7299 7.26 90.1433 7.26C89.5433 7.26 89.0499 7.47333 88.6633 7.9C88.2899 8.31333 88.1033 8.98667 88.1033 9.92C88.1033 10.8533 88.2899 11.5333 88.6633 11.96C89.0499 12.3733 89.5433 12.58 90.1433 12.58ZM97.5944 15V11.36H101.294V15H97.5944Z" fill="black"/>
</svg>
